<svg width="18" height="18" viewBox="0 0 18 18" fill="none" xmlns="http://www.w3.org/2000/svg">
<path fill-rule="evenodd" clip-rule="evenodd" d="M9 2C5.15 2 2 5.15 2 9C2 12.85 5.15 16 9 16C12.85 16 16 12.85 16 9C16 5.15 12.85 2 9 2Z" fill="#BA3366"/>
<path fill-rule="evenodd" clip-rule="evenodd" d="M11.2114 11.748C10.9459 11.9637 10.5551 11.9192 10.3448 11.6494L9.00001 9.92288L7.65517 11.6494C7.44497 11.9192 7.05409 11.9637 6.7886 11.748C6.52857 11.5367 6.48741 11.1554 6.69637 10.8935L8.24457 8.95306L6.66815 6.92927C6.4746 6.6808 6.51672 6.3229 6.76266 6.12614C7.01111 5.92739 7.37369 5.96791 7.57212 6.21662L9.00001 8.00624L10.4279 6.21662C10.6263 5.96791 10.9889 5.92739 11.2374 6.12614C11.4833 6.3229 11.5254 6.6808 11.3319 6.92927L9.75545 8.95306L11.3036 10.8935C11.5126 11.1554 11.4714 11.5367 11.2114 11.748Z" fill="white"/>
</svg>
