<svg width="320" height="252" viewBox="0 0 320 252" fill="none" xmlns="http://www.w3.org/2000/svg">
<g clip-path="url(#clip0_12893:10013)">
<path d="M160 252C242.843 252 310 246.627 310 240C310 233.373 242.843 228 160 228C77.1574 228 10.0001 233.373 10.0001 240C10.0001 246.627 77.1574 252 160 252Z" fill="#F6F2FF"/>
<path d="M51.0001 244C62.0458 244 71.0001 242.209 71.0001 240C71.0001 237.791 62.0458 236 51.0001 236C39.9544 236 31.0001 237.791 31.0001 240C31.0001 242.209 39.9544 244 51.0001 244Z" fill="#F6F2FF"/>
<path d="M158 244C182.853 244 203 242.209 203 240C203 237.791 182.853 236 158 236C133.147 236 113 237.791 113 240C113 242.209 133.147 244 158 244Z" fill="#F6F2FF"/>
<path fill-rule="evenodd" clip-rule="evenodd" d="M4.44489 103.932C4.50394 103.656 4.55988 103.38 4.62515 103.106C6.66388 93.7168 9.99548 84.6687 14.9494 76.3593C15.1141 76.0831 15.2788 75.8068 15.4466 75.5305C18.7132 70.1843 22.6218 65.2569 27.0854 60.858C29.5531 58.4244 32.2444 56.112 35.4455 54.4451C39.9301 52.1047 45.173 51.1549 50.3258 50.3789C55.6775 49.5687 61.1038 48.8921 66.5145 48.1626C68.4372 47.9081 70.3485 47.638 72.2484 47.3525C77.4758 46.5796 82.6659 45.6856 87.7317 44.4999C93.9939 43.0379 100.064 41.1228 105.797 38.4285C106.255 38.2216 106.708 38.0022 107.156 37.7704C107.603 37.547 108.054 37.3204 108.495 37.0907C108.936 36.861 109.371 36.6313 109.803 36.3954C110.027 36.2743 110.251 36.1533 110.472 36.026C110.692 35.8987 110.91 35.787 111.124 35.6628C111.771 35.3028 112.405 34.9334 113.039 34.5609L113.064 34.5454C113.483 34.3002 113.896 34.0488 114.307 33.7973C116.65 32.3757 118.944 30.892 121.237 29.399L122.679 28.4678L124.914 27.0244C125.349 26.742 125.793 26.4595 126.231 26.1801C126.542 25.9753 126.853 25.7704 127.192 25.5593C128.82 24.535 130.471 23.5293 132.164 22.5702C132.565 22.3405 132.969 22.1108 133.376 21.8873C136.798 19.9805 140.377 18.3689 144.074 17.0699L144.123 17.0513C145.983 16.4034 147.88 15.8685 149.804 15.4496C150.914 15.2075 152.026 15.0089 153.152 14.8568C156.159 14.4309 159.208 14.3881 162.226 14.7295C168.153 15.4155 173.707 17.6876 179.63 18.4543C191.825 20.0063 203.669 15.0057 215.137 11.0885C217.957 10.1263 220.798 9.22507 223.659 8.38492C225.561 7.82309 227.469 7.29231 229.393 6.78015C241.179 3.67 253.208 1.56313 265.35 0.482147C270.426 -0.0146332 275.532 -0.127731 280.625 0.143814C282.562 0.261765 284.476 0.454224 286.356 0.764618C292.789 1.75789 298.788 3.84068 303.63 7.65549C307.595 10.7874 310.433 14.8692 312.593 19.1403C314.804 23.4984 316.365 28.1561 317.226 32.9655C317.344 33.6204 317.45 34.2784 317.537 34.9365C317.693 36.0622 317.809 37.1941 317.885 38.3323C318.303 44.3987 317.578 50.4896 315.747 56.2889C313.696 62.7824 310.277 69.0153 308.773 75.5585C308.711 75.8358 308.652 76.112 308.596 76.3872C308.39 77.3811 308.238 78.3851 308.139 79.395C307.371 87.4344 310.315 95.2719 312.624 103.134C312.704 103.408 312.785 103.684 312.863 103.96C313.112 104.833 313.35 105.706 313.578 106.577C315.716 114.889 316.31 123.788 314.404 132.085C314.345 132.362 314.274 132.638 314.206 132.911C312.93 138.156 310.532 143.062 307.176 147.292C303.608 151.762 298.924 155.483 293.921 158.752C291.482 160.345 288.961 161.834 286.356 163.218C284.492 164.212 282.581 165.152 280.625 166.04C264.946 173.179 247.061 176.665 229.374 175.895C228.442 175.855 227.509 175.805 226.577 175.737C225.645 175.669 224.625 175.588 223.65 175.498C212.256 174.393 201.171 171.726 190.163 168.812C186.474 167.834 182.791 166.831 179.111 165.847C177.473 165.413 175.839 164.978 174.201 164.556C166.18 162.486 158.04 160.611 149.798 159.211C147.89 158.882 145.98 158.582 144.067 158.311C137.428 157.336 130.734 156.769 124.025 156.613C121.416 156.561 118.807 156.584 116.196 156.681C114.879 156.729 113.56 156.8 112.24 156.896C98.6122 157.855 85.4412 161.064 72.2484 164.063C70.3402 164.497 68.4289 164.926 66.5145 165.348C64.0034 165.9 61.4922 166.434 58.9687 166.928C43.2648 170.01 29.2672 168.238 14.6666 161.877C11.3474 160.434 8.03134 158.69 5.99881 155.98C3.96628 153.27 3.4566 149.943 3.07745 146.73C2.53979 142.155 2.1886 137.52 2.05496 132.861C2.05496 132.588 2.05496 132.312 2.03632 132.036C1.82498 122.624 2.52734 113.123 4.44489 103.932Z" fill="#F6F2FF"/>
<path d="M215.906 165.697C212.757 130.523 43.8232 62.6327 12.4611 95.9492C-18.9009 129.266 11.2498 191.792 76.9731 207.803C142.696 223.815 219.054 200.872 215.906 165.697Z" fill="#EEEEEE" fill-opacity="0.3"/>
<path fill-rule="evenodd" clip-rule="evenodd" d="M122.066 181.405C124.884 151.725 276.062 94.4387 304.128 122.551C332.194 150.664 325.09 209.796 266.275 223.306C207.459 236.817 119.248 211.086 122.066 181.405Z" fill="#EEEEEE" fill-opacity="0.3"/>
<path d="M41.6116 132.079C42.9215 131.919 44.3197 131.976 45.538 132.493C48.1285 133.592 48.8648 136.653 48.8293 139.14C48.791 141.818 48.2224 144.742 50.258 146.899C51.1936 147.891 52.3576 148.65 53.2763 149.66C54.2581 150.739 55.0284 151.974 55.5987 153.3C56.646 155.736 57.16 158.6 56.2023 161.155C55.3591 163.405 53.2378 165.436 53.6961 167.994C54.1743 170.662 56.8647 172.702 58.5468 174.69C60.4505 176.939 62.2032 179.814 62.4911 182.764C62.7672 185.591 61.5367 188.45 59.6482 190.587C55.8749 194.857 50.2031 196.951 44.4842 196.938C42.0561 196.932 39.307 196.822 37.2116 195.518C36.564 195.114 36.2223 194.662 35.8374 194.033C35.4922 193.469 35.0362 193.102 34.5084 192.703C33.3489 191.826 32.5115 190.645 31.9771 189.322C29.9018 184.185 31.5605 177.83 34.4653 173.269C35.1536 172.188 35.7172 171.148 35.3828 169.86C35.0338 168.515 34.1762 167.302 33.4176 166.147C32.6681 165.004 31.8123 163.914 31.2264 162.679C30.6128 161.385 30.4401 160.03 30.5485 158.614C30.7522 155.954 31.9005 153.5 33.5262 151.36C35.0921 149.3 36.9306 147.328 36.9347 144.628C36.9393 141.767 35.0262 139.221 35.8412 136.312C36.1787 135.107 36.8565 133.871 37.9488 133.149C38.9963 132.456 40.3795 132.23 41.6116 132.079Z" fill="#DFD8EF"/>
<path d="M40.7556 136.654C40.7802 136.269 41.236 136.039 41.5949 136.139C42.0673 136.271 42.0582 136.713 42.0457 137.106C42.0075 138.315 42.1825 139.489 42.473 140.662C43.0769 143.101 44.193 145.347 45.0772 147.689C45.9606 150.03 46.3753 152.446 45.8571 154.922C45.3685 157.257 44.6009 159.531 44.1009 161.869C43.6602 163.93 43.1913 166.103 43.8624 168.158C44.5083 170.136 45.936 171.747 46.9642 173.535C49.0925 177.236 50.0367 181.342 50.163 185.567C50.2216 187.529 50.1688 189.509 49.7137 191.433C49.4517 192.541 49.0997 194.039 48.1502 194.804C47.7123 195.156 46.9635 195.278 46.595 194.756C46.249 194.266 46.5525 193.507 46.6624 192.985C47.138 190.724 47.2337 188.414 47.1198 186.119C47.0096 183.895 46.7469 181.675 46.0471 179.552C45.3976 177.581 44.4109 175.811 43.2496 174.087C42.0662 172.33 40.836 170.57 40.3471 168.488C39.8503 166.374 40.2539 164.223 40.7935 162.149C41.3643 159.956 42.1118 157.825 42.8846 155.691C43.6378 153.611 43.9047 151.644 43.489 149.467C42.6676 145.168 40.4692 141.132 40.7556 136.654Z" fill="#F6F2FF"/>
<path d="M76.1998 137.297C77.8209 137.789 79.431 138.583 80.5866 139.828C83.0437 142.476 82.2898 146.479 80.9334 149.402C79.4733 152.548 77.2608 155.711 78.508 159.321C79.0813 160.981 80.0453 162.484 80.5891 164.156C81.1701 165.943 81.4209 167.804 81.3889 169.669C81.3298 173.095 80.4186 176.75 77.9448 179.273C75.7668 181.495 72.2053 182.793 71.3909 186.057C70.5412 189.461 72.6185 193.274 73.5408 196.499C74.5846 200.15 75.1208 204.462 73.8994 208.1C72.729 211.587 69.7744 214.328 66.4298 215.873C59.7472 218.96 51.9883 218.485 45.2874 215.495C42.4425 214.225 39.276 212.665 37.508 210.032C36.9616 209.218 36.8 208.505 36.6809 207.561C36.5742 206.714 36.2333 206.043 35.8252 205.297C34.9285 203.657 34.5708 201.824 34.6431 199.982C34.9242 192.827 40.2286 186.174 46.0467 182.291C47.4253 181.371 48.636 180.434 48.9246 178.737C49.2261 176.965 48.8613 175.085 48.5825 173.323C48.3071 171.582 47.8794 169.848 47.8451 168.083C47.8093 166.233 48.3228 164.541 49.1985 162.923C50.8434 159.883 53.4877 157.577 56.5252 155.893C59.4509 154.271 62.6495 152.896 64.0814 149.705C65.5992 146.323 64.7008 142.317 67.1945 139.301C68.2271 138.051 69.6754 136.942 71.3383 136.656C72.9331 136.382 74.6752 136.834 76.1998 137.297Z" fill="#F6F2FF"/>
<path d="M72.8884 142.889C73.1184 142.447 73.7722 142.413 74.1393 142.72C74.6225 143.123 74.3807 143.641 74.1601 144.101C73.4824 145.512 73.0718 146.995 72.7973 148.536C72.2264 151.74 72.3548 154.985 72.162 158.223C71.9694 161.457 71.1888 164.536 69.2859 167.197C67.4917 169.706 65.4031 171.997 63.5941 174.503C61.9996 176.713 60.3133 179.04 60.0217 181.826C59.7407 184.507 60.5665 187.163 60.8323 189.819C61.3828 195.318 60.3366 200.675 58.2715 205.744C57.3124 208.098 56.2137 210.416 54.6737 212.456C53.7871 213.631 52.5912 215.219 51.0803 215.628C50.3836 215.816 49.4441 215.568 49.2868 214.756C49.1389 213.995 49.891 213.255 50.293 212.694C52.0332 210.267 53.355 207.581 54.4241 204.803C55.4597 202.112 56.3151 199.345 56.609 196.464C56.8816 193.79 56.6548 191.176 56.1998 188.526C55.7361 185.825 55.2197 183.096 55.7381 180.374C56.2645 177.61 57.863 175.274 59.5802 173.101C61.3963 170.803 63.3863 168.671 65.4076 166.549C67.3773 164.481 68.72 162.291 69.3737 159.496C70.6652 153.973 70.2083 148.042 72.8884 142.889Z" fill="#DFD8EF"/>
<path d="M26.0851 157.609C28.7806 157.609 31.1504 159.038 32.7833 161.066C34.6948 163.439 35.0809 166.338 35.8571 169.166C36.2433 170.574 36.9076 171.972 38.0717 172.928C39.1306 173.798 40.4748 173.972 41.7422 174.397C44.2751 175.246 46.3203 177.292 47.1281 179.788C48.1135 182.834 47.0698 185.904 47.2495 188.99C47.4145 191.825 50.2088 193.593 52.457 194.951C54.6739 196.291 56.671 197.545 57.3387 200.155C58.0468 202.923 58.2843 206.012 57.3036 208.747C55.6709 213.3 50.8924 215.304 46.2752 215.615C42.085 215.897 36.8162 215.455 33.6694 212.413C31.7863 210.593 31.1044 208.047 31.189 205.515C31.2416 203.94 31.5536 202.379 31.9569 200.858C32.2428 199.779 32.629 198.705 32.739 197.59C33.0315 194.625 30.2907 194.055 27.9577 193.241C24.9932 192.206 22.9177 190.252 21.4745 187.529C20.1305 184.994 19.5665 182.148 20.3722 179.356C20.7837 177.931 21.5301 176.638 22.5423 175.538C22.9879 175.054 23.6159 174.65 24.0181 174.141C24.3935 173.666 24.3117 173.051 24.1824 172.495C23.5842 169.925 21.7205 167.797 21.054 165.232C20.4523 162.917 20.808 160.035 22.9248 158.541C23.8394 157.896 24.9672 157.616 26.0851 157.609Z" fill="#DFD8EF"/>
<path d="M29.758 164.305C32.615 167.348 33.3915 171.477 33.6194 175.479C33.7471 177.723 33.6142 180.09 34.2736 182.267C34.8377 184.13 36.1602 185.554 37.5234 186.9C40.2675 189.61 43.3278 192.364 44.1304 196.285C44.6014 198.587 44.2835 200.964 44.9342 203.24C45.5259 205.308 46.5677 207.341 47.8349 209.088C48.8552 210.494 50.1844 211.571 51.2997 212.883C51.64 213.283 52.1274 213.872 51.9869 214.438C51.8226 215.099 50.9796 215.309 50.3815 215.205C48.987 214.963 47.8132 213.631 46.9014 212.663C45.5681 211.247 44.4352 209.725 43.5143 208.017C42.492 206.12 41.6689 204.108 41.3172 201.98C40.9522 199.772 41.1339 197.472 40.3005 195.353C38.8981 191.788 35.4965 189.685 33.0372 186.906C29.973 183.444 30.43 179.135 30.7438 174.877C30.9162 172.536 31.0876 169.893 29.905 167.757C29.4536 166.941 28.4471 166.18 28.253 165.253C28.0753 164.404 29.0456 163.546 29.758 164.305Z" fill="#F6F2FF"/>
<path d="M32.8048 214.315C32.8048 231.72 35.6453 240.839 50.6399 240.839C65.6345 240.839 68.4749 231.72 68.4749 214.315H32.8048Z" fill="#DFD8EF"/>
<path fill-rule="evenodd" clip-rule="evenodd" d="M45.4907 245.299C50.1506 245.299 52.2766 245.456 53.9283 243.937C55.5801 242.418 54.6274 240.372 52.7229 239.701C50.8185 239.029 40.6692 238.51 38.2584 239.701C35.8476 240.891 35.4318 241.92 37.053 243.411C38.6743 244.902 40.8307 245.299 45.4907 245.299Z" fill="#E8ECF1"/>
<path fill-rule="evenodd" clip-rule="evenodd" d="M31.0911 245.478C35.7511 245.478 37.877 245.638 39.5288 244.079C41.1805 242.52 40.2278 240.42 38.3234 239.731C36.419 239.041 26.2696 238.509 23.8589 239.731C21.4481 240.953 21.0323 242.009 22.6535 243.539C24.2747 245.07 26.4311 245.478 31.0911 245.478Z" fill="#E8ECF1"/>
<path fill-rule="evenodd" clip-rule="evenodd" d="M31.0911 244.53C35.7511 244.53 37.877 244.175 39.5288 242.716C41.1805 241.257 40.2278 238.786 38.3234 238.14C36.419 237.495 26.2696 236.997 23.8589 238.14C21.4481 239.284 21.0323 241.284 22.6535 242.716C24.2747 244.148 26.4311 244.53 31.0911 244.53Z" fill="#FFDA2C"/>
<path fill-rule="evenodd" clip-rule="evenodd" d="M31.0301 241.751C35.4947 241.751 39.114 240.62 39.114 239.225C39.114 237.83 35.4947 236.699 31.0301 236.699C26.5655 236.699 22.9462 237.83 22.9462 239.225C22.9462 240.62 26.5655 241.751 31.0301 241.751Z" fill="#FFDA2C"/>
<path fill-rule="evenodd" clip-rule="evenodd" d="M31.0301 241.499C35.2157 241.499 38.6088 240.481 38.6088 239.225C38.6088 237.97 35.2157 236.952 31.0301 236.952C26.8445 236.952 23.4514 237.97 23.4514 239.225C23.4514 240.481 26.8445 241.499 31.0301 241.499Z" fill="#FFF6CE"/>
<path fill-rule="evenodd" clip-rule="evenodd" d="M32.8559 237.458L30.0996 237.597L28.7657 237.664C28.6169 237.672 28.4997 237.742 28.504 237.821C28.5083 237.9 28.6324 237.957 28.7812 237.95L30.1151 237.882C30.5175 237.862 30.9046 237.947 31.1508 238.11C31.2667 238.187 31.3464 238.274 31.3919 238.366L28.8108 238.496C28.662 238.504 28.5449 238.574 28.5492 238.653C28.5535 238.732 28.6775 238.789 28.8263 238.782L31.4172 238.651C31.4089 238.676 31.3983 238.701 31.3844 238.726C31.2818 238.907 31.034 239.049 30.6866 239.124C30.1578 239.237 29.5613 239.257 28.9837 239.275L28.8624 239.279C28.7491 239.282 28.6471 239.324 28.6081 239.382C28.569 239.44 28.6009 239.502 28.6879 239.538L32.0958 240.935C32.1484 240.957 32.213 240.965 32.2766 240.962C32.3509 240.958 32.4239 240.938 32.4754 240.904C32.5712 240.84 32.5563 240.75 32.4422 240.704L29.598 239.537C30.0212 239.516 30.4468 239.477 30.8598 239.388C31.3759 239.277 31.7453 239.065 31.8999 238.791C31.9311 238.736 31.9491 238.68 31.9609 238.623L32.9165 238.575C33.0653 238.567 33.1825 238.497 33.1782 238.419C33.1739 238.34 33.0498 238.282 32.901 238.289L31.9424 238.338C31.8878 238.188 31.7654 238.045 31.5797 237.922C31.5223 237.884 31.4578 237.85 31.3903 237.818L32.8714 237.743C33.0202 237.735 33.1373 237.665 33.133 237.587C33.1287 237.508 33.0047 237.45 32.8559 237.458Z" fill="#FFDA2C"/>
<path fill-rule="evenodd" clip-rule="evenodd" d="M44.9056 243.052C49.2846 244.646 51.4037 245.039 53.455 244.233C55.5063 243.426 55.4561 240.779 53.8872 239.521C52.3184 238.263 42.9516 234.323 40.295 234.574C37.6384 234.824 36.5639 236.56 37.5974 238.461C38.631 240.361 40.5267 241.458 44.9056 243.052Z" fill="#FFDA2C"/>
<path fill-rule="evenodd" clip-rule="evenodd" d="M45.7987 240.42C49.9941 241.947 53.7819 242.122 54.2591 240.811C54.7363 239.5 51.7221 237.199 47.5267 235.672C43.3313 234.145 39.5435 233.97 39.0663 235.281C38.5891 236.592 41.6033 238.893 45.7987 240.42Z" fill="#FFDA2C"/>
<path fill-rule="evenodd" clip-rule="evenodd" d="M45.8851 240.182C49.8183 241.614 53.3549 241.818 53.7844 240.638C54.2138 239.458 51.3735 237.341 47.4404 235.909C43.5072 234.478 39.9706 234.274 39.5411 235.454C39.1116 236.634 41.952 238.751 45.8851 240.182Z" fill="#FFF6CE"/>
<path fill-rule="evenodd" clip-rule="evenodd" d="M48.983 237.009L46.3453 236.197L45.0687 235.805C44.9262 235.761 44.7922 235.786 44.7693 235.862C44.7464 235.938 44.8432 236.034 44.9856 236.078L46.2622 236.471C46.6472 236.589 46.9819 236.802 47.1575 237.039C47.2402 237.151 47.2852 237.26 47.2967 237.362L44.8266 236.602C44.6842 236.558 44.5502 236.584 44.5272 236.659C44.5043 236.735 44.6011 236.831 44.7435 236.875L47.2229 237.638C47.2065 237.659 47.1881 237.679 47.1665 237.697C47.008 237.833 46.7268 237.881 46.3747 237.833C45.8388 237.759 45.2718 237.573 44.7227 237.393L44.6074 237.355C44.5 237.319 44.3898 237.323 44.3332 237.364C44.2767 237.406 44.2853 237.475 44.3548 237.538L47.0793 240.017C47.1214 240.055 47.1791 240.085 47.24 240.104C47.3111 240.126 47.3865 240.132 47.4467 240.117C47.5585 240.09 47.5752 240.001 47.484 239.918L45.2102 237.849C45.6153 237.974 46.0284 238.083 46.4469 238.141C46.9699 238.213 47.3896 238.14 47.6286 237.935C47.6768 237.894 47.713 237.847 47.7433 237.798L48.6578 238.08C48.8002 238.124 48.9342 238.098 48.9572 238.022C48.9801 237.947 48.8833 237.85 48.7409 237.806L47.8234 237.524C47.8235 237.364 47.7575 237.188 47.6251 237.009C47.5841 236.953 47.535 236.899 47.4826 236.846L48.8999 237.283C49.0423 237.326 49.1763 237.301 49.1992 237.225C49.2222 237.15 49.1254 237.053 48.983 237.009Z" fill="#FFDA2C"/>
<path fill-rule="evenodd" clip-rule="evenodd" d="M34.3143 241.987C36.4381 241.987 38.3661 241.512 39.872 241.152C41.6701 240.722 42.9133 240.334 43.8123 239.458C45.464 237.849 44.5113 235.126 42.6069 234.415C40.7025 233.703 29.7953 233.989 27.3845 235.25C24.9737 236.511 24.5579 238.715 26.1791 240.293C27.8003 241.872 29.6543 241.987 34.3143 241.987Z" fill="#FFDA2C"/>
<path fill-rule="evenodd" clip-rule="evenodd" d="M35.4582 238.211C39.8371 236.617 41.7134 235.556 42.7664 233.62C43.8194 231.683 42.0791 229.688 40.0688 229.732C38.0584 229.777 28.3507 232.78 26.4766 234.68C24.6024 236.579 24.8954 238.6 26.9088 239.391C28.9222 240.183 31.0792 239.804 35.4582 238.211Z" fill="#FFDA2C"/>
<path fill-rule="evenodd" clip-rule="evenodd" d="M34.4504 235.62C38.6458 234.093 41.66 231.792 41.1828 230.481C40.7056 229.17 36.9178 229.345 32.7224 230.872C28.527 232.399 25.5128 234.7 25.99 236.011C26.4672 237.322 30.255 237.147 34.4504 235.62Z" fill="#FFDA2C"/>
<path fill-rule="evenodd" clip-rule="evenodd" d="M34.3641 235.383C38.2973 233.951 41.1376 231.834 40.7082 230.654C40.2787 229.474 36.7421 229.678 32.8089 231.11C28.8757 232.541 26.0354 234.658 26.4649 235.838C26.8943 237.018 30.431 236.814 34.3641 235.383Z" fill="#FFF6CE"/>
<path fill-rule="evenodd" clip-rule="evenodd" d="M34.6975 230.961L32.1552 232.034L30.9248 232.554C30.7875 232.612 30.7014 232.718 30.7324 232.791C30.7634 232.863 30.8997 232.875 31.037 232.817L32.2674 232.297C32.6385 232.141 33.0314 232.088 33.3184 232.157C33.4536 232.19 33.5585 232.245 33.6325 232.315L31.2517 233.32C31.1145 233.378 31.0284 233.484 31.0593 233.557C31.0903 233.629 31.2267 233.641 31.3639 233.583L33.7537 232.574C33.7545 232.6 33.7531 232.628 33.7484 232.656C33.7143 232.861 33.5298 233.079 33.2289 233.268C32.7709 233.556 32.217 233.778 31.6805 233.993L31.5678 234.038C31.4623 234.079 31.3809 234.154 31.364 234.222C31.3471 234.29 31.3984 234.337 31.4924 234.341L35.1726 234.488C35.2295 234.491 35.2931 234.477 35.3518 234.452C35.4203 234.423 35.4821 234.379 35.5188 234.329C35.5869 234.237 35.5422 234.157 35.419 234.152L32.3475 234.029C32.7378 233.864 33.1246 233.683 33.4822 233.458C33.9291 233.177 34.2037 232.851 34.2553 232.541C34.2657 232.478 34.2634 232.419 34.2552 232.362L35.1367 231.99C35.2739 231.932 35.36 231.826 35.3291 231.754C35.2981 231.681 35.1617 231.669 35.0245 231.727L34.1402 232.1C34.0376 231.978 33.8736 231.885 33.6571 231.833C33.5901 231.817 33.5179 231.807 33.4436 231.801L34.8097 231.224C34.947 231.166 35.0331 231.06 35.0021 230.987C34.9711 230.915 34.8348 230.903 34.6975 230.961Z" fill="#FFDA2C"/>
<path fill-rule="evenodd" clip-rule="evenodd" d="M223.632 156L193.402 168.139C189.311 169.782 187.32 174.426 188.951 178.522L189.071 178.824C195.813 194.513 199.364 203.339 199.726 205.303C200.087 207.267 198.731 209.569 195.658 212.208L226.666 200.021C230.264 198.607 232.035 194.543 230.621 190.945C230.574 190.827 230.525 190.71 230.472 190.595C223.625 175.622 219.899 166.873 219.292 164.348C218.599 161.466 220.046 158.684 223.632 156Z" fill="white"/>
<path d="M203.73 198.994L212.317 195.258M194.817 175.638L200.364 173.307L194.817 175.638ZM202.572 172.452L208.84 169.948L202.572 172.452ZM195.942 179.16L213.185 172.039L195.942 179.16ZM197.137 182.497L214.475 175.151L197.137 182.497ZM198.514 185.865L207.117 181.97L198.514 185.865ZM199.773 189.031L217.151 181.97L199.773 189.031ZM201.218 192.338L209.78 188.617L201.218 192.338ZM202.331 195.6L211.045 191.872L202.331 195.6ZM216.141 189.901L219.515 188.617L216.141 189.901Z" stroke="#DFD8EF" stroke-linecap="round" stroke-linejoin="round"/>
<path d="M137 35L149.348 44.6193L143.933 47.203L192.623 149.214L245.066 100.469L254.863 168.122L273.828 152.864L275.082 154.423L253.386 171.878L243.633 104.531L191.991 152.533L142.128 48.065L136.713 50.6498L137 35Z" fill="#DFD8EF"/>
<path fill-rule="evenodd" clip-rule="evenodd" d="M136.52 38.8479C141.459 42.9434 146.49 56.3617 143.219 58.7721C141.914 59.7334 138.444 60.0719 134.524 59.4547L142.137 72.5952L130.441 77.3206L126.925 57.0246C123.62 55.3097 120.801 52.71 119.6 49.0062C116.14 38.3355 131.58 34.7524 136.52 38.8479Z" fill="#D8BBBF"/>
<path fill-rule="evenodd" clip-rule="evenodd" d="M128.12 36.3128C131.514 35.267 134.847 35.0785 135.916 35.3342C137.165 38.4249 136.933 39.5852 131.759 41.5817C130.764 42.756 130.254 44.2915 129.848 46.1989C132.802 52.2217 135.24 54.8456 137.161 54.0695C140.042 52.9053 141.752 50.0978 143.016 49.587C143.938 49.2146 144.196 50.4451 143.928 51.5427C143.708 52.4482 141.527 54.1164 141.966 55.2045C142.406 56.2926 144.005 54.6673 144.266 55.3126C144.697 56.3801 145.849 58.2494 143.987 59.0019C142.102 59.7633 136.422 61.2634 134.371 58.8547C133.048 57.3005 131.159 53.736 128.702 48.1612C128.582 48.191 128.462 48.2311 128.344 48.2788C126.729 48.9312 125.947 50.7625 126.596 52.369C126.925 53.1845 127.56 53.7854 128.317 54.094C128.024 55.3173 127.667 56.6161 127.212 57.9912C123.161 57.3618 118.435 52.6373 119.412 45.8694C119.21 42.8291 120.628 40.5887 122.717 38.9703C124.306 37.4035 126.253 36.5126 128.12 36.3128Z" fill="#4A4A4A"/>
<path fill-rule="evenodd" clip-rule="evenodd" d="M137.502 199.494C135.806 199.896 134.049 200.225 132.231 200.481C130.413 200.737 128.596 201.052 126.78 201.425L126.968 206.801L129.749 209.783C132.395 208.955 134.275 208.439 135.39 208.234C137.062 207.927 138.341 208.131 138.839 208.113C139.755 208.081 139.309 205.208 137.502 199.494Z" fill="#D8BBBF"/>
<path fill-rule="evenodd" clip-rule="evenodd" d="M125.997 196.547L134.344 198.251C133.021 201.172 132.836 205.036 133.788 209.846C129.541 214.334 126.248 220.289 123.91 227.709C123.774 228.139 123.315 228.378 122.884 228.243C122.856 228.234 122.828 228.223 122.801 228.211L120.104 227.023L122.736 208.292L124.272 197.366L125.997 196.547Z" fill="#F6F2FF"/>
<path fill-rule="evenodd" clip-rule="evenodd" d="M165.807 123.876C188.082 146.222 199.388 162.246 199.727 171.945C200.066 181.645 194.958 189.266 184.405 194.809C159.225 204.684 144.058 209.711 138.904 209.891C138.934 210.732 138.243 207.084 136.833 198.949C158.36 188.197 169.461 180.473 170.138 175.778C171.152 168.736 167.291 166.362 155.674 155.371C147.93 148.043 143.598 138.384 142.678 126.395L165.807 123.876Z" fill="#24154C"/>
<path fill-rule="evenodd" clip-rule="evenodd" d="M120.5 74.0758L126.815 96.129C117.58 99.1232 111.59 101.955 108.845 104.626C104.728 108.631 107.657 110.755 123.998 122.076C140.339 133.396 153.622 131.516 153.8 136.622C153.919 140.026 149.146 141.813 139.483 141.982C125.377 135.365 114.92 131.088 108.111 129.151C97.8979 126.247 86.168 116.997 85.9911 111.933C85.908 109.554 87.966 98.9479 99.0011 87.1235C102.085 83.8188 109.252 79.4695 120.5 74.0758Z" fill="#D8BBBF"/>
<path fill-rule="evenodd" clip-rule="evenodd" d="M86.3476 140.641C82.3016 137.138 80.2593 134.834 80.2207 133.729C80.1821 132.624 78.043 131.938 73.8034 131.672L74.009 137.559L74.7521 140.48C77.116 144.396 78.3196 146.976 78.3631 148.219C78.4065 149.463 81.4386 148.098 87.4595 144.125L86.3476 140.641Z" fill="#D8BBBF"/>
<path fill-rule="evenodd" clip-rule="evenodd" d="M155.256 124.244C157.602 129.348 158.944 136.757 159.283 146.469C159.792 161.038 149.836 178.929 142.511 187.284C135.186 195.64 128.442 201.845 117.482 194.15C110.176 189.02 96.6456 173.882 76.8909 148.735L86.9732 140.045C105.66 161.05 117.177 171.318 121.522 170.85C125.868 170.381 125.378 156.343 120.052 128.734L155.256 124.244Z" fill="#4F2DA7"/>
<path fill-rule="evenodd" clip-rule="evenodd" d="M78.9913 126.543L83.0516 134.032C79.9642 134.897 76.8844 137.239 73.8122 141.059C67.644 140.691 60.9662 141.996 53.7789 144.975C53.3618 145.147 52.8835 144.949 52.7107 144.532C52.6992 144.505 52.6893 144.476 52.6809 144.448L51.8575 141.618L67.8982 131.595L77.2553 125.748L78.9913 126.543Z" fill="#DFD8EF"/>
<path fill-rule="evenodd" clip-rule="evenodd" d="M185.109 40.9886C192.027 53.9949 195.525 61.6192 195.604 63.8615C195.721 67.2251 191.471 72.7235 185.628 72.9276C181.732 73.0637 176.758 72.8425 170.707 72.2642L156.168 70.0545L162.918 94.8686C177.609 92.9984 187.508 91.2431 192.615 89.6026C200.276 87.1418 209.647 82.8335 209.231 70.9189C208.953 62.9759 204.33 53.2164 195.361 41.6403L185.109 40.9886Z" fill="#D8BBBF"/>
<path fill-rule="evenodd" clip-rule="evenodd" d="M174.036 24.6374C173.125 23.2439 172.353 22.8635 171.719 23.496C170.769 24.4448 171.007 25.3106 173.359 28.69C175.711 32.0694 177.719 33.6659 178.587 33.8512C179.165 33.9748 180.763 35.6536 183.382 38.8876L185.602 37.6695L179.567 25.3212L174.036 24.6374Z" fill="#FFE0EC"/>
<path fill-rule="evenodd" clip-rule="evenodd" d="M173.629 26.8446C172.976 25.6711 173.214 23.7861 174.343 21.1896C176.317 18.4978 177.806 16.8987 178.81 16.3922C180.79 15.3928 183.167 16.0772 184.199 17.3508C186.014 19.5928 187.959 24.8483 190.033 33.1176L186.553 37.4744C184.138 36.3163 182.603 35.0966 181.947 33.8152C181.29 32.5338 180.581 29.8134 179.818 25.6541C179.809 29.5433 179.258 31.4369 178.164 31.335C176.524 31.182 174.608 28.6048 173.629 26.8446Z" fill="#D8BBBF"/>
<path fill-rule="evenodd" clip-rule="evenodd" d="M182.867 38.2524L188.489 45.195L195.526 42.0563L189.59 32.4242C187.575 34.6418 186.074 36.1785 185.087 37.0342C184.101 37.8899 183.361 38.296 182.867 38.2524Z" fill="#D8BBBF"/>
<mask id="mask0_12893:10013" style="mask-type:alpha" maskUnits="userSpaceOnUse" x="102" y="68" width="71" height="71">
<path d="M171.554 70.7509C172.539 73.4967 172.934 77.226 172.737 81.9389C172.649 84.0256 171.552 86.0499 171.257 87.9439C171.009 89.5329 170.776 91.7525 170.557 94.6026C167.013 95.1267 164.467 95.2156 162.919 94.8693C161.742 94.6062 157.809 100.181 159.532 111.48C159.895 113.862 161.987 117.994 165.807 123.876C140.694 136.072 126.119 140.695 122.085 137.745C120.795 136.802 115.533 134.918 116.205 135.99C116.877 137.062 121.243 113.642 121.121 110.134C121.017 107.162 120.329 103.857 119.057 100.217L114.417 102.943C113.537 98.6604 112.486 95.5187 111.266 93.5177C109.434 90.5162 108.16 91.4469 105.753 88.1888C104.148 86.0168 103.129 83.9965 102.695 82.1281C116.585 75.5549 124.096 72.0828 125.227 71.7119C126.924 71.1555 130.778 72.6792 137.015 71.3002C143.253 69.9213 139.991 68.7983 143.404 68.6791C150.726 68.4234 160.109 69.114 171.554 70.7509Z" fill="white"/>
</mask>
<g mask="url(#mask0_12893:10013)">
<path d="M171.554 70.7509C172.539 73.4967 172.934 77.226 172.737 81.9389C172.649 84.0256 171.552 86.0499 171.257 87.9439C171.009 89.5329 170.776 91.7525 170.557 94.6026C167.013 95.1267 164.467 95.2156 162.919 94.8693C161.742 94.6062 157.809 100.181 159.532 111.48C159.895 113.862 161.987 117.994 165.807 123.876C140.694 136.072 126.119 140.695 122.085 137.745C120.795 136.802 115.533 134.918 116.205 135.99C116.877 137.062 121.243 113.642 121.121 110.134C121.017 107.162 120.329 103.857 119.057 100.217L114.417 102.943C113.537 98.6604 112.486 95.5187 111.266 93.5177C109.434 90.5162 108.16 91.4469 105.753 88.1888C104.148 86.0168 103.129 83.9965 102.695 82.1281C116.585 75.5549 124.096 72.0828 125.227 71.7119C126.924 71.1555 130.778 72.6792 137.015 71.3002C143.253 69.9213 139.991 68.7983 143.404 68.6791C150.726 68.4234 160.109 69.114 171.554 70.7509Z" fill="#DFD8EF"/>
<path fill-rule="evenodd" clip-rule="evenodd" d="M119.004 100.059C116.072 93.0209 114.818 88.1662 115.242 85.4947C116.68 76.4215 123.785 71.7622 125.227 71.7119C126.251 71.6761 124.055 69.2622 120.42 70.9487C117.927 72.1055 111.374 75.6672 100.76 81.6338L114.417 102.943L119.004 100.059Z" fill="#DFD8EF"/>
</g>
<path fill-rule="evenodd" clip-rule="evenodd" d="M162.506 94.9544C158.233 90.7978 154.612 90.7344 151.645 94.7642C148.678 98.794 150.3 109.95 156.512 128.233C159.988 126.508 162.984 125.554 165.499 125.37C168.015 125.187 171.668 125.657 176.46 126.781C166.726 121.508 161.127 116.122 159.662 110.622C158.223 105.22 158.733 99.1542 162.159 95.201C162.211 95.1402 162.327 95.058 162.506 94.9544Z" fill="#DFD8EF"/>
<path d="M231 73H223V75H231V73Z" fill="#DFD8EF"/>
<path fill-rule="evenodd" clip-rule="evenodd" d="M213.465 32.1213L219.121 26.4645L220.536 27.8787L214.879 33.5355L213.465 32.1213Z" fill="#DFD8EF"/>
<path d="M181.308 1.58326L179.428 0.899216L176.692 8.41676L178.572 9.1008L181.308 1.58326Z" fill="#DFD8EF"/>
<path fill-rule="evenodd" clip-rule="evenodd" d="M80.0001 75V73H88.0001V75H80.0001Z" fill="#DFD8EF"/>
<path fill-rule="evenodd" clip-rule="evenodd" d="M90.2932 28.1949L91.5788 26.6628L97.7071 31.8051L96.4216 33.3372L90.2932 28.1949Z" fill="#DFD8EF"/>
<path d="M133.572 2.89921L131.692 3.58325L134.429 11.1008L136.308 10.4168L133.572 2.89921Z" fill="#DFD8EF"/>
</g>
<defs>
<clipPath id="clip0_12893:10013">
<rect width="320" height="252" fill="white" transform="translate(0.00012207)"/>
</clipPath>
</defs>
</svg>
