<svg width="322" height="72" viewBox="0 0 322 72" fill="none" xmlns="http://www.w3.org/2000/svg">
<path d="M28.5708 43.4475V25.3694C28.5708 25.0335 28.744 24.7195 29.0335 24.531L53.3483 8.67735C54.0501 8.21936 54.9999 8.70176 54.9999 9.51533V26.9889C54.9999 27.703 54.6315 28.3701 54.0156 28.7716L30.2223 44.2855C29.5206 44.743 28.5708 44.2611 28.5708 43.4475Z" fill="#35CB5D"/>
<path d="M25.372 62.4208V24.3801C25.372 24.0302 25.1843 23.7058 24.8753 23.5206L1.37553 9.43765C0.777103 9.07872 0 9.49124 0 10.1684V48.5982C0 48.9475 0.187664 49.2725 0.497109 49.4577L23.6525 63.3344C24.4012 63.7833 25.372 63.2669 25.372 62.4208Z" fill="#4F2DA7"/>
<path d="M28.5708 62.4387V49.6938C28.5708 49.3603 28.742 49.0478 29.029 48.8587L43.8294 39.1021C44.5306 38.6398 45.4854 39.1212 45.4854 39.9377V51.8551C45.4854 52.7064 45.0477 53.5037 44.316 53.9861L30.2268 63.2743C29.5251 63.7366 28.5708 63.2551 28.5708 62.4387Z" fill="#8D61FF"/>
<path d="M80.2277 64.8017H69V8.15701H105.187V18.623H80.1469V32.6046H102.44V42.7509H80.2277V64.8017Z" fill="#1F0D50"/>
<path d="M122.518 64.8017H111.775V25.4938H122.518V64.8017ZM110.483 12.6312C110.483 10.8201 111.129 9.27539 112.422 7.99712C113.714 6.66556 115.276 6.00002 117.106 6.00002C118.937 6.00002 120.499 6.63892 121.791 7.91768C123.084 9.19595 123.73 10.7668 123.73 12.6312C123.73 14.389 123.084 15.907 121.791 17.1853C120.499 18.4636 118.937 19.1025 117.106 19.1025C115.276 19.1025 113.714 18.4636 112.422 17.1853C111.129 15.907 110.483 14.389 110.483 12.6312Z" fill="#1F0D50"/>
<path d="M129.012 53.8562L138.22 51.8591C138.328 53.5631 139.001 55.0012 140.239 56.1729C141.532 57.2914 143.282 57.8508 145.49 57.8508C147.159 57.8508 148.451 57.4779 149.367 56.7324C150.282 55.9865 150.74 55.0545 150.74 53.9361C150.74 51.9651 149.313 50.6869 146.459 50.1013L141.209 48.9029C137.493 48.1037 134.693 46.6656 132.808 44.5885C130.977 42.5115 130.062 40.0344 130.062 37.1586C130.062 33.5897 131.462 30.5541 134.262 28.0504C137.116 25.5471 140.67 24.2955 144.924 24.2955C147.616 24.2955 149.986 24.6951 152.032 25.4938C154.078 26.2398 155.667 27.225 156.798 28.45C157.928 29.6217 158.79 30.8201 159.382 32.0451C159.975 33.2701 160.352 34.4689 160.514 35.6406L151.547 37.6377C151.332 36.2529 150.686 35.0279 149.609 33.9627C148.586 32.8976 147.051 32.3648 145.005 32.3648C143.605 32.3648 142.393 32.7377 141.37 33.4832C140.401 34.2291 139.916 35.1611 139.916 36.2795C139.916 38.1972 141.128 39.3689 143.551 39.7951L149.205 40.9935C153.028 41.7922 155.936 43.257 157.928 45.3873C159.975 47.5181 160.998 50.0746 160.998 53.0574C160.998 56.5726 159.652 59.6086 156.959 62.1652C154.267 64.7217 150.471 66 145.57 66C142.77 66 140.266 65.6004 138.058 64.8017C135.851 63.9492 134.127 62.884 132.889 61.6057C131.704 60.2742 130.789 58.9693 130.142 57.691C129.55 56.3594 129.173 55.0811 129.012 53.8562Z" fill="#1F0D50"/>
<path d="M205.745 6.95863V57.691C205.745 60.3008 205.853 62.6709 206.068 64.8017H195.81C195.541 63.4701 195.406 61.9521 195.406 60.2476C194.491 61.8988 193.037 63.2304 191.044 64.2422C189.106 65.2546 186.844 65.7603 184.259 65.7603C178.606 65.7603 173.947 63.8165 170.286 59.9279C166.678 55.9865 164.874 51.0332 164.874 45.0681C164.874 39.2623 166.651 34.389 170.205 30.4476C173.813 26.5062 178.39 24.5353 183.937 24.5353C189.644 24.5353 193.387 26.1599 195.164 29.4086V6.95863H205.745ZM175.698 45.0681C175.698 48.5299 176.613 51.273 178.444 53.2967C180.275 55.2677 182.644 56.2529 185.552 56.2529C188.406 56.2529 190.749 55.241 192.579 53.2173C194.41 51.1931 195.325 48.45 195.325 44.9882C195.325 41.5791 194.41 38.916 192.579 36.9988C190.749 35.0279 188.406 34.0427 185.552 34.0427C182.698 34.0427 180.328 35.0279 178.444 36.9988C176.613 38.9693 175.698 41.659 175.698 45.0681Z" fill="#1F0D50"/>
<path d="M226.446 53.3766C228.438 55.3476 230.835 56.3328 233.635 56.3328C236.435 56.3328 238.804 55.3476 240.743 53.3766C242.735 51.4062 243.732 48.6631 243.732 45.148C243.732 41.6324 242.735 38.8893 240.743 36.9189C238.804 34.9479 236.435 33.9627 233.635 33.9627C230.835 33.9627 228.438 34.9479 226.446 36.9189C224.507 38.8893 223.538 41.6324 223.538 45.148C223.538 48.6631 224.507 51.4062 226.446 53.3766ZM218.692 30.2078C222.676 26.2664 227.658 24.2955 233.635 24.2955C239.612 24.2955 244.566 26.2664 248.497 30.2078C252.482 34.1492 254.475 39.1291 254.475 45.148C254.475 51.1664 252.482 56.1463 248.497 60.0877C244.566 64.0291 239.612 66 233.635 66C227.658 66 222.676 64.0291 218.692 60.0877C214.761 56.1463 212.795 51.1664 212.795 45.148C212.795 39.1291 214.761 34.1492 218.692 30.2078Z" fill="#1F0D50"/>
<path d="M272.082 64.8017H261.339V25.4939H271.597V30.2878C272.62 28.4767 274.236 27.0385 276.444 25.9734C278.651 24.9082 280.913 24.3754 283.229 24.3754C288.99 24.3754 292.922 26.5595 295.021 30.9266C297.876 26.5595 302.076 24.3754 307.622 24.3754C311.661 24.3754 315.053 25.6271 317.8 28.1303C320.6 30.6336 322 34.3623 322 39.3156V64.8017H311.58V41.4725C311.58 39.2357 310.988 37.4512 309.803 36.1197C308.672 34.7348 306.922 34.0427 304.553 34.0427C302.345 34.0427 300.568 34.7881 299.222 36.2795C297.876 37.7709 297.202 39.6087 297.202 41.7922V64.8017H286.54V41.4725C286.54 39.2357 285.948 37.4512 284.763 36.1197C283.579 34.7348 281.829 34.0427 279.513 34.0427C277.251 34.0427 275.448 34.7881 274.101 36.2795C272.755 37.7176 272.082 39.5554 272.082 41.7922V64.8017Z" fill="#1F0D50"/>
</svg>
