<svg width="141" height="120" viewBox="0 0 141 120" fill="none" xmlns="http://www.w3.org/2000/svg">
<path d="M101.843 90.3788L106.068 101.94L118.597 92.6692L124.861 88.0341L125.517 87.5491C128.959 85.0018 130.838 80.7177 129.669 76.6404C127.992 70.7888 126.402 70.7059 126.402 70.7059C118.186 68.2214 112.469 80.3021 110.123 82.3586L101.843 90.3788Z" fill="#4F44D0"/>
<path d="M126.401 70.7065C120.713 65.7375 114.393 63.8741 106.809 60.1474C94.8 56.123 90.3527 52.7437 81.733 53.0174C61.7637 53.6545 41.4958 56.9114 23.6625 65.8121C16.3722 69.4529 9.03508 74.6878 6.94898 82.4667C6.41804 84.458 6.26871 86.6136 6.99688 88.5434C7.59377 90.1672 8.63069 91.5992 9.99556 92.6843C16.2323 97.4928 23.5852 100.252 28.4762 102.396L35.9932 88.8239L29.3676 84.7708C29.3676 84.7708 36.534 80.2915 47.3186 79.417L48.0391 109.829C48.0391 109.829 75.8126 124.441 94.6849 108.695L91.0079 73.191C91.0079 73.191 96.3563 74.7699 111.865 82.5079C111.864 82.511 118.971 74.4676 126.401 70.7065Z" fill="#4F44D0"/>
<path d="M47.8388 83.4635C47.7689 83.4436 47.7069 83.4028 47.6615 83.3468C47.6161 83.2908 47.5893 83.2223 47.5849 83.1507L47.0367 74.0383C47.0315 73.9448 47.0642 73.8531 47.1278 73.7833C47.1914 73.7135 47.2805 73.6715 47.3755 73.6663C47.4705 73.6612 47.5637 73.6933 47.6346 73.7558C47.7055 73.8183 47.7482 73.9059 47.7533 73.9995L48.3048 83.1129C48.3091 83.2047 48.2765 83.2947 48.2141 83.3632C48.1517 83.4318 48.0645 83.4735 47.9712 83.4795C47.9264 83.4835 47.8813 83.4781 47.8388 83.4635Z" fill="#132056"/>
<path d="M29.9365 84.7935C29.9109 84.7891 29.8861 84.7816 29.8626 84.7711L18.3403 78.2227C18.2982 78.2016 18.2612 78.172 18.2316 78.1359C18.2019 78.0998 18.1803 78.0579 18.1682 78.0131C18.156 77.9681 18.1536 77.9213 18.1611 77.8754C18.1686 77.8296 18.1859 77.7858 18.2116 77.7469C18.2311 77.7042 18.2594 77.666 18.2951 77.6349C18.3305 77.6038 18.3724 77.5804 18.4177 77.5664C18.4631 77.5523 18.5109 77.5479 18.5581 77.5532C18.6053 77.5587 18.6508 77.5739 18.6916 77.598L30.2138 84.1463C30.2991 84.1828 30.366 84.2511 30.4002 84.3362C30.4341 84.4213 30.4324 84.5162 30.3953 84.6001C30.3582 84.6839 30.2887 84.7499 30.2022 84.7834C30.1158 84.8169 30.0192 84.8154 29.934 84.7789L29.9365 84.7935Z" fill="#132056"/>
<path d="M36.6975 88.8434C36.6975 88.8434 46.3248 93.7773 48.3851 96.9119C50.4453 100.046 51.8682 107.53 47.9176 111.39C43.9671 115.25 40.0508 114.666 37.2943 112.921C37.2943 112.921 36.417 111.689 38.3512 109.215C39.9496 107.169 42.6699 106.905 42.6699 106.905L29.2017 102.621L36.6975 88.8434Z" fill="#FFA283"/>
<path d="M37.193 112.896C37.1206 112.872 37.0577 112.825 37.0138 112.763C36.9698 112.701 36.947 112.626 36.9487 112.549C36.9932 111.268 38.3347 110.451 39.6016 110.399C40.2055 110.392 40.8084 110.45 41.4 110.571C41.8719 110.664 42.3503 110.72 42.8309 110.739C42.9673 110.751 43.1048 110.731 43.2321 110.68C43.3295 110.611 43.4134 110.525 43.4793 110.426C43.7642 110.049 44.027 109.631 44.2784 109.227C44.5693 108.733 44.8899 108.257 45.2383 107.803C45.7284 107.194 46.7574 106.161 48.1278 106.137C48.1743 106.137 48.2203 106.145 48.2636 106.162C48.3068 106.179 48.3462 106.204 48.3797 106.236C48.4131 106.268 48.4398 106.307 48.4585 106.349C48.477 106.392 48.487 106.438 48.4879 106.484C48.4887 106.531 48.4805 106.577 48.4635 106.62C48.4466 106.664 48.4212 106.703 48.389 106.737C48.3568 106.77 48.3184 106.797 48.2758 106.816C48.2333 106.834 48.1875 106.844 48.141 106.845C47.0571 106.862 46.201 107.734 45.7863 108.246C45.4565 108.676 45.1524 109.125 44.8757 109.591C44.6171 110.007 44.3461 110.44 44.0385 110.845C43.9089 111.049 43.724 111.213 43.5054 111.317C43.2869 111.42 43.0435 111.46 42.8034 111.431C42.2875 111.41 41.7738 111.35 41.2671 111.252C40.7223 111.143 40.1679 111.09 39.6123 111.092C38.6861 111.133 37.6663 111.705 37.6361 112.565C37.6345 112.611 37.6239 112.657 37.6046 112.699C37.5854 112.741 37.5581 112.779 37.524 112.811C37.4902 112.843 37.4503 112.867 37.4068 112.884C37.3634 112.9 37.3172 112.907 37.2707 112.906C37.2447 112.905 37.2187 112.901 37.193 112.896Z" fill="#4F44D0"/>
<path d="M37.9539 109.672C37.8932 109.653 37.8384 109.619 37.7942 109.574C37.7318 109.506 37.6994 109.416 37.7039 109.324C37.7085 109.232 37.7495 109.145 37.8184 109.083C39.1138 107.92 41.8651 108.142 42.6529 108.381L42.6978 108.394C42.7873 108.422 42.8623 108.483 42.906 108.564C42.9497 108.646 42.9587 108.741 42.931 108.829C42.9033 108.917 42.8412 108.991 42.7583 109.034C42.6754 109.077 42.5785 109.086 42.4889 109.059L42.4375 109.043C41.7173 108.825 39.3212 108.683 38.3045 109.598C38.2591 109.641 38.202 109.671 38.14 109.684C38.0779 109.697 38.0134 109.693 37.9539 109.672Z" fill="#4F44D0"/>
<path d="M101.206 90.8436C101.206 90.8436 92.2431 94.0723 90.0857 96.5747C87.9284 99.077 85.8261 105.44 88.8264 109.244C91.8268 113.047 95.3089 112.974 97.9134 111.76C97.9134 111.76 98.8202 110.784 97.4185 108.413C96.2603 106.452 93.9187 105.919 93.9187 105.919L106.156 103.684L101.206 90.8436Z" fill="#FFA283"/>
<path d="M98.005 111.749C98.0709 111.736 98.1311 111.703 98.1766 111.653C98.2221 111.604 98.2506 111.541 98.2579 111.474C98.3666 110.353 97.2909 109.492 96.1922 109.306C95.6664 109.232 95.1341 109.215 94.6042 109.256C94.1821 109.284 93.7585 109.279 93.3372 109.242C93.2169 109.238 93.0993 109.205 92.9942 109.146C92.9171 109.076 92.8539 108.991 92.8079 108.897C92.6028 108.538 92.4219 108.144 92.2492 107.763C92.0523 107.301 91.8275 106.851 91.5761 106.416C91.2188 105.831 90.4405 104.816 89.2483 104.643C89.2079 104.637 89.1668 104.639 89.1271 104.649C89.0874 104.659 89.0502 104.677 89.0173 104.701C88.9844 104.725 88.9567 104.756 88.9355 104.791C88.9144 104.826 88.9005 104.865 88.8943 104.905C88.8883 104.946 88.8901 104.987 88.9 105.026C88.9098 105.066 88.9273 105.103 88.9515 105.136C88.9757 105.169 89.0062 105.197 89.0412 105.217C89.0761 105.238 89.1149 105.252 89.1553 105.258C90.0984 105.394 90.7445 106.249 91.0472 106.741C91.2853 107.152 91.4988 107.577 91.6865 108.014C91.864 108.405 92.0504 108.813 92.2721 109.2C92.3616 109.393 92.5039 109.556 92.6826 109.671C92.8612 109.785 93.0689 109.847 93.2816 109.848C93.7338 109.888 94.1886 109.893 94.6418 109.863C95.1293 109.829 95.6189 109.844 96.1031 109.908C96.906 110.047 97.7294 110.659 97.6567 111.411C97.6528 111.452 97.6568 111.493 97.6688 111.532C97.6807 111.571 97.7001 111.607 97.7261 111.638C97.752 111.67 97.7839 111.696 97.82 111.715C97.8559 111.734 97.8954 111.745 97.9361 111.749C97.9589 111.751 97.982 111.751 98.005 111.749Z" fill="#4F44D0"/>
<path d="M97.7155 108.861C97.7705 108.852 97.8221 108.829 97.8658 108.795C97.9281 108.742 97.9667 108.667 97.9734 108.586C97.98 108.505 97.9542 108.425 97.9013 108.363C96.9061 107.205 94.4822 107.093 93.7679 107.214L93.7271 107.22C93.646 107.234 93.5736 107.279 93.5261 107.345C93.4786 107.412 93.4598 107.494 93.4738 107.573C93.4878 107.653 93.5334 107.724 93.6008 107.771C93.668 107.818 93.7515 107.837 93.8327 107.823L93.8793 107.815C94.5323 107.705 96.6374 107.847 97.4183 108.758C97.4529 108.801 97.4992 108.834 97.5517 108.852C97.6043 108.87 97.6611 108.873 97.7155 108.861Z" fill="#4F44D0"/>
<path d="M90.9589 78.9585C90.8899 78.9396 90.8284 78.9004 90.7825 78.8463C90.7366 78.7921 90.7086 78.7255 90.7021 78.6552L90.0258 71.1711C90.0173 71.0794 90.0462 70.988 90.1062 70.9172C90.1661 70.8462 90.2522 70.8018 90.3454 70.7933C90.4387 70.7848 90.5315 70.8132 90.6035 70.8721C90.6754 70.931 90.7207 71.0156 90.7292 71.1073L91.4055 78.5914C91.414 78.6832 91.385 78.7745 91.325 78.8453C91.2652 78.9162 91.1791 78.9608 91.0858 78.9694C91.0432 78.9737 91.0002 78.97 90.9589 78.9585Z" fill="#132056"/>
<path d="M66.2172 59.3014C63.0825 58.3496 61.1731 56.2448 60.7228 55.2797C60.6843 55.1952 60.6814 55.0992 60.7145 55.0126C60.7477 54.9259 60.8144 54.8556 60.8999 54.8171C60.9417 54.7959 60.9876 54.7836 61.0346 54.7809C61.0815 54.7782 61.1285 54.7854 61.1725 54.8016C61.2164 54.8179 61.2565 54.843 61.29 54.8755C61.3234 54.9079 61.3496 54.947 61.3668 54.99C61.9155 56.1686 65.2085 59.463 70.4305 59.0519C74.2008 58.7547 76.3738 57.1303 78.18 53.256C78.1992 53.2144 78.2266 53.1772 78.2606 53.146C78.2945 53.115 78.3344 53.0908 78.3777 53.0749C78.4212 53.0589 78.4674 53.0515 78.5138 53.0531C78.5601 53.0548 78.6056 53.0653 78.6477 53.0843C78.6898 53.1032 78.7278 53.1302 78.7593 53.1636C78.791 53.197 78.8155 53.2362 78.8317 53.2788C78.8478 53.3216 78.8553 53.367 78.8536 53.4126C78.8518 53.4581 78.8411 53.5029 78.8218 53.5444C76.9161 57.6347 74.5064 59.4298 70.484 59.7441C69.0459 59.8655 67.5975 59.7153 66.2172 59.3014Z" fill="#132056"/>
<path d="M64.8415 64.0307C60.1667 62.6114 56.6526 59.3262 55.4463 56.4747C55.41 56.3898 55.4095 56.294 55.4449 56.2086C55.4804 56.1231 55.5489 56.055 55.6353 56.0192C55.7217 55.9834 55.8191 55.9828 55.9059 56.0177C55.9927 56.0525 56.0618 56.1198 56.0981 56.2048C58.6938 62.3445 67.186 64.6282 72.0562 63.8573C76.7078 63.1206 82.4215 59.8572 83.2107 53.078C83.216 53.0327 83.2301 52.9888 83.2527 52.9489C83.2751 52.909 83.3052 52.8738 83.3415 52.8454C83.3778 52.817 83.4193 52.7959 83.4638 52.7833C83.5084 52.7706 83.555 52.7668 83.601 52.7719C83.6471 52.777 83.6917 52.7909 83.7322 52.813C83.7727 52.8351 83.8084 52.8647 83.8372 52.9004C83.8661 52.936 83.8875 52.9769 83.9004 53.0207C83.9132 53.0645 83.9171 53.1104 83.9118 53.1557C83.0683 60.3205 77.0542 63.7665 72.1682 64.543C69.718 64.9298 67.2106 64.7544 64.8415 64.0307Z" fill="#132056"/>
<path d="M27.0064 100.73C26.9767 100.724 26.9475 100.715 26.9196 100.703C26.8408 100.654 26.7847 100.576 26.7635 100.487C26.7423 100.398 26.7574 100.303 26.8058 100.225L33.932 89.0059C33.9876 88.9449 34.0633 88.9051 34.1457 88.8936C34.2281 88.8821 34.312 88.8996 34.3825 88.9429C34.4531 88.9862 34.5058 89.0528 34.5314 89.1307C34.557 89.2086 34.5538 89.2929 34.5224 89.3688L27.3929 100.587C27.3537 100.65 27.2945 100.697 27.2245 100.723C27.1545 100.749 27.0777 100.751 27.0064 100.73Z" fill="#132056"/>
<path d="M110.895 81.9151C110.821 81.8671 110.768 81.7918 110.75 81.7059C110.732 81.62 110.749 81.5304 110.798 81.457C110.844 81.3877 115.016 74.1171 123.292 72.4919C123.383 72.4737 123.479 72.4925 123.556 72.5434C123.635 72.5949 123.689 72.6744 123.707 72.7647C123.725 72.855 123.705 72.9488 123.654 73.0259C123.602 73.1024 123.52 73.1554 123.429 73.1736C115.471 74.7381 111.455 81.7209 111.416 81.791C111.393 81.8318 111.362 81.8678 111.325 81.8967C111.288 81.9256 111.245 81.9468 111.199 81.9591C111.154 81.9714 111.106 81.9746 111.059 81.9685C111.012 81.9622 110.967 81.9468 110.926 81.9231L110.895 81.9151Z" fill="#132056"/>
<path d="M70.9223 19.9201C76.6302 20.5404 81.9525 24.3365 83.9787 29.7557C86.005 35.1749 84.3556 42.0015 79.7816 45.6282C77.6381 47.2803 75.0685 48.3106 72.3625 48.6026C66.9126 49.246 61.1589 46.9341 58.068 42.4256C54.9771 37.9171 54.9603 31.271 58.3823 26.8612" fill="#FFA283"/>
<path d="M50.9255 32.6201C51.3317 34.4765 51.9568 36.3196 53.183 37.7629C54.4093 39.2062 56.3682 40.1788 58.2555 39.8332C60.06 39.5042 61.4914 38.0428 62.1674 36.3522C62.8433 34.6614 62.8353 32.8046 62.6284 31.0087C64.4026 31.9528 66.2014 32.9081 68.162 33.382C70.1228 33.8559 72.2959 33.7775 74.0277 32.7609C74.6436 32.4425 75.1294 31.9255 75.4038 31.2965C75.9512 29.8129 74.6413 28.3442 73.4514 27.2896C76.3307 27.1176 79.1677 26.5196 81.8666 25.5154C83.3459 24.9663 85.0008 23.9818 85.026 22.4228C85.0483 21.0743 83.8071 20.0597 82.611 19.4054C78.1026 16.9414 72.6955 16.5406 67.582 17.1891C63.4483 17.7121 59.2814 18.9461 56.0602 21.552C52.839 24.158 50.1413 28.0564 50.7917 32.1047L50.9255 32.6201Z" fill="#132056"/>
<path d="M69.3948 38.7563C69.9302 38.8183 70.4089 38.0446 70.464 37.0284C70.5192 36.012 70.1298 35.1378 69.5944 35.0758C69.059 35.0137 68.5803 35.7872 68.5252 36.8036C68.4701 37.8198 68.8594 38.6942 69.3948 38.7563Z" fill="#132056"/>
<path d="M79.8353 35.6132C80.3708 35.6753 80.8582 34.7406 80.924 33.526C80.9899 32.311 80.6093 31.276 80.0738 31.2139C79.5385 31.1519 79.0511 32.0863 78.9852 33.3012C78.9193 34.5159 79.2999 35.5512 79.8353 35.6132Z" fill="#132056"/>
<path d="M75.3189 41.5651C75.271 41.5516 75.2269 41.5278 75.1896 41.4955C75.1522 41.4633 75.1226 41.4231 75.1029 41.3782C75.0812 41.3372 75.0685 41.2923 75.0655 41.2462C75.0624 41.1999 75.0694 41.1537 75.0857 41.1103C75.102 41.067 75.1273 41.0274 75.16 40.9943C75.1928 40.961 75.2323 40.935 75.2758 40.9177C75.8577 40.6577 76.3589 40.4078 76.6243 39.9892C76.6864 39.8761 76.7223 39.751 76.7299 39.6226C76.7373 39.4944 76.716 39.366 76.6675 39.2467C76.6436 39.1831 76.605 39.126 76.5549 39.0794C76.5048 39.0329 76.4444 38.9985 76.3784 38.9787C76.2357 38.9574 76.0906 38.9553 75.9472 38.9726C75.5888 38.992 75.1756 39.0295 74.8773 38.679C74.7558 38.5172 74.6761 38.3289 74.6448 38.1301L74.1901 36.0024C74.1791 35.9154 74.202 35.8275 74.2542 35.7563C74.3063 35.685 74.3839 35.6359 74.4713 35.6186C74.5588 35.6013 74.6496 35.617 74.7255 35.6629C74.8016 35.7088 74.8572 35.7812 74.8811 35.8657L75.3358 37.9932C75.3462 38.0789 75.3741 38.1617 75.4179 38.2365C75.4791 38.3106 75.6461 38.3058 75.8948 38.2877C76.1109 38.2615 76.3297 38.2684 76.5435 38.3079C76.717 38.3517 76.8775 38.4352 77.0117 38.5518C77.1458 38.6685 77.2499 38.8149 77.3152 38.979C77.4067 39.1973 77.4474 39.433 77.4342 39.669C77.4209 39.9048 77.3543 40.1349 77.2389 40.3422C76.8551 40.9917 76.1215 41.3201 75.5841 41.5729C75.4979 41.6032 75.4031 41.6005 75.3189 41.5651Z" fill="#132056"/>
<path d="M60.3248 41.9719C58.7555 43.0205 55.4314 40.4862 56.401 37.0094C57.0442 34.7056 60.0106 35.7899 60.8664 37.6719C61.1766 38.1873 61.374 38.7606 61.446 39.3554C61.5179 39.9502 61.463 40.5534 61.2844 41.1264" fill="#FFA283"/>
<ellipse cx="72.4924" cy="44.8426" rx="3.19014" ry="2.12676" fill="#132056"/>
<path d="M100.584 13.3276C103.215 11.5695 106.308 10.6311 109.473 10.6311C111.574 10.6311 113.654 11.045 115.596 11.849C117.537 12.6531 119.301 13.8317 120.786 15.3174C122.272 16.8031 123.451 18.567 124.255 20.5082C125.059 22.4494 125.473 24.53 125.473 26.6311C125.473 29.7956 124.534 32.889 122.776 35.5202C121.018 38.1514 118.519 40.2022 115.596 41.4132C112.672 42.6242 109.455 42.941 106.351 42.3237C103.248 41.7063 100.397 40.1824 98.159 37.9448C95.9213 35.7072 94.3975 32.8562 93.7801 29.7525C93.1627 26.6488 93.4796 23.4318 94.6906 20.5082C95.9016 17.5845 97.9524 15.0857 100.584 13.3276Z" fill="#D04954"/>
<path d="M110.454 28.5308C110.429 28.6409 110.37 28.7386 110.288 28.8083C110.206 28.8781 110.104 28.9159 110 28.9159C109.896 28.9159 109.794 28.8781 109.712 28.8083C109.63 28.7386 109.571 28.6409 109.546 28.5308C107.708 20.6449 107.787 21.0025 107.78 20.9211C107.754 20.5863 107.792 20.2492 107.892 19.9313C107.992 19.6134 108.152 19.3216 108.36 19.0742C108.569 18.8269 108.822 18.6295 109.105 18.4944C109.387 18.3593 109.692 18.2896 110 18.2896C110.308 18.2896 110.613 18.3593 110.895 18.4944C111.178 18.6295 111.431 18.8269 111.64 19.0742C111.848 19.3216 112.008 19.6134 112.108 19.9313C112.208 20.2492 112.246 20.5863 112.22 20.9211C112.213 21 112.29 20.6424 110.454 28.5308Z" fill="white"/>
<path fill-rule="evenodd" clip-rule="evenodd" d="M110 18.579C109.73 18.579 109.464 18.6399 109.216 18.7583C108.969 18.8766 108.746 19.0498 108.563 19.2674C108.379 19.4851 108.239 19.7423 108.151 20.023C108.062 20.3037 108.028 20.6015 108.051 20.8975C108.051 20.9039 108.065 20.9748 108.24 21.7298C108.341 22.1644 108.495 22.8234 108.729 23.8263C108.983 24.9149 109.331 26.4088 109.81 28.4611C109.821 28.5104 109.847 28.5526 109.882 28.5821C109.916 28.6114 109.958 28.6266 110 28.6266C110.042 28.6266 110.084 28.6114 110.118 28.5821C110.153 28.5526 110.179 28.5104 110.19 28.4611C110.829 25.7184 111.236 23.9721 111.495 22.8581C111.609 22.3703 111.694 22.0038 111.759 21.7279C111.922 21.0255 111.947 20.915 111.949 20.8976C111.972 20.6016 111.938 20.3037 111.849 20.023C111.761 19.7423 111.621 19.4851 111.437 19.2674C111.254 19.0498 111.031 18.8766 110.784 18.7583C110.536 18.6399 110.27 18.579 110 18.579ZM108.993 18.2305C109.31 18.0787 109.653 18.0002 110 18.0002C110.347 18.0002 110.69 18.0787 111.007 18.2305C111.324 18.3823 111.609 18.604 111.842 18.881C112.076 19.1581 112.254 19.4846 112.366 19.8397C112.477 20.1947 112.52 20.571 112.491 20.9447L112.491 20.9472C112.492 20.9343 112.49 20.9718 112.486 20.9969C112.482 21.0199 112.475 21.0515 112.464 21.1008C112.441 21.2034 112.392 21.4144 112.287 21.8669C112.223 22.1433 112.137 22.5102 112.024 22.9982C111.764 24.1121 111.357 25.8575 110.719 28.6003C110.679 28.7713 110.587 28.9245 110.457 29.0346C110.327 29.1448 110.167 29.2053 110 29.2053C109.833 29.2053 109.673 29.1448 109.543 29.0346C109.413 28.9245 109.321 28.7715 109.281 28.6005C108.803 26.5486 108.455 25.0546 108.201 23.9659C107.967 22.9626 107.813 22.3035 107.712 21.8687C107.607 21.4162 107.558 21.2047 107.535 21.1014C107.524 21.0519 107.518 21.0192 107.514 20.9948C107.51 20.9692 107.507 20.924 107.509 20.9463L107.509 20.9447C107.48 20.571 107.523 20.1947 107.634 19.8397C107.746 19.4846 107.924 19.1581 108.158 18.881C108.391 18.604 108.676 18.3823 108.993 18.2305Z" fill="white"/>
<path d="M110.003 31.2774C109.562 31.2768 109.131 31.4149 108.764 31.6742C108.397 31.9334 108.111 32.3022 107.942 32.7338C107.773 33.1654 107.729 33.6405 107.815 34.0988C107.901 34.5571 108.113 34.9782 108.425 35.3086C108.736 35.639 109.134 35.864 109.566 35.955C109.998 36.046 110.447 35.999 110.854 35.8199C111.261 35.6408 111.609 35.3377 111.854 34.9489C112.098 34.5601 112.228 34.1032 112.228 33.6359C112.228 33.0104 111.993 32.4105 111.576 31.9682C111.159 31.5259 110.593 31.2774 110.003 31.2774Z" fill="white"/>
<path d="M16.0433 42.5637C18.7313 38.5365 24.3246 36.7339 28.8931 38.4195C26.9092 36.6956 25.7623 34.1593 25.3105 31.5779C24.8587 28.9965 25.0408 26.3538 25.3497 23.753C24.9835 24.9151 24.3422 25.9709 23.4798 26.8314C22.6173 27.6919 21.5591 28.332 20.3939 28.698C17.7407 29.5037 14.8926 28.8014 12.1964 28.0853C14.1963 29.4037 15.46 31.6511 15.9588 33.9909C16.4575 36.3307 17.1985 38.2183 16.7426 40.571L16.0433 42.5637Z" fill="#FFBD02"/>
<path d="M35.8018 18.6995C36.6057 17.5508 38.1752 17.1407 39.5764 17.3341C40.9776 17.5275 42.2442 18.2193 43.4876 18.896C42.332 17.7878 41.8577 16.1003 41.9799 14.5109C42.1628 12.9216 42.7254 11.4014 43.6206 10.078C42.6254 11.044 41.4089 11.7541 40.0753 12.1475C39.4087 12.3387 38.7071 12.3807 38.0206 12.2709C37.334 12.1609 36.6793 11.9016 36.1029 11.5114C37.3019 13.4474 37.7476 15.9058 36.3897 17.7395L35.8018 18.6995Z" fill="#FFBD02"/>
</svg>
